<svg width="100" height="100" viewBox="0 0 100 100" fill="none" xmlns="http://www.w3.org/2000/svg">
<rect opacity="0.05" width="100" height="100" rx="50" fill="#33BFFF"/>
<path d="M50 69.1205L49.3716 69.8984C49.7511 70.2049 50.2964 70.1929 50.662 69.87L50 69.1205ZM68.483 50.7778L67.7888 50.058C67.7604 50.0855 67.7336 50.1145 67.7086 50.1451L68.483 50.7778ZM28.7102 46.4878L29.6599 46.1744C29.6562 46.1632 29.6523 46.1521 29.6482 46.141L28.7102 46.4878ZM50 37.8026L49.0874 38.2115C49.2486 38.5711 49.6059 38.8026 50 38.8026C50.3941 38.8026 50.7514 38.5711 50.9126 38.2115L50 37.8026ZM71.4269 46.0952L70.4769 45.7828C70.4588 45.8378 70.4455 45.8942 70.4372 45.9515L71.4269 46.0952ZM71.3945 46.2405L70.4366 45.9535V45.9535L71.3945 46.2405ZM71.0648 47.0499L70.1686 46.6063C70.1609 46.622 70.1535 46.6379 70.1466 46.6539L71.0648 47.0499ZM50 69.1205C50.662 69.87 50.6621 69.8699 50.6622 69.8698C50.6623 69.8697 50.6625 69.8695 50.6627 69.8694C50.6631 69.869 50.6637 69.8684 50.6645 69.8677C50.6662 69.8663 50.6685 69.8642 50.6717 69.8614C50.6779 69.8559 50.6871 69.8477 50.6993 69.837C50.7236 69.8154 50.7596 69.7835 50.8067 69.7416C50.901 69.6579 51.0396 69.5344 51.218 69.3749C51.5748 69.0558 52.0906 68.5924 52.7278 68.0137C54.0021 66.8566 55.763 65.2381 57.7099 63.392C61.5926 59.7103 66.2542 55.0869 69.2575 51.4104L67.7086 50.1451C64.7927 53.7146 60.2127 58.2626 56.3337 61.9407C54.3997 63.7746 52.6498 65.3831 51.3833 66.5331C50.7502 67.108 50.2382 67.568 49.8848 67.8841C49.7081 68.0421 49.571 68.1642 49.4783 68.2465C49.432 68.2877 49.3967 68.319 49.3732 68.3399C49.3614 68.3503 49.3525 68.3582 49.3466 68.3634C49.3437 68.366 49.3415 68.3679 49.34 68.3692C49.3393 68.3698 49.3388 68.3703 49.3385 68.3706C49.3383 68.3707 49.3382 68.3708 49.3381 68.3709C49.338 68.3709 49.338 68.371 50 69.1205ZM27.7606 46.8011C28.4383 48.8551 30.1913 51.3239 32.3082 53.8006C34.4515 56.3081 37.0649 58.933 39.586 61.3109C42.1097 63.6912 44.5546 65.8367 46.3676 67.3865C47.2745 68.1617 48.0242 68.7886 48.5477 69.2221C48.8095 69.4389 49.0148 69.6074 49.1549 69.722C49.225 69.7793 49.2789 69.8231 49.3153 69.8527C49.3336 69.8675 49.3475 69.8788 49.3569 69.8865C49.3616 69.8903 49.3652 69.8932 49.3677 69.8952C49.3689 69.8962 49.3699 69.8969 49.3705 69.8975C49.3708 69.8977 49.3711 69.898 49.3713 69.8981C49.3715 69.8983 49.3716 69.8984 50 69.1205C50.6284 68.3425 50.6283 68.3425 50.6283 68.3425C50.6282 68.3424 50.628 68.3423 50.6278 68.3421C50.6273 68.3417 50.6265 68.341 50.6255 68.3402C50.6234 68.3385 50.6201 68.3359 50.6158 68.3323C50.6071 68.3253 50.5939 68.3146 50.5764 68.3004C50.5414 68.272 50.4891 68.2294 50.4206 68.1734C50.2836 68.0614 50.0816 67.8957 49.8233 67.6818C49.3068 67.254 48.5651 66.6338 47.6671 65.8662C45.8704 64.3304 43.4513 62.2074 40.9583 59.856C38.4627 57.5021 35.9064 54.9321 33.8286 52.5011C31.7244 50.0394 30.2048 47.8262 29.6599 46.1744L27.7606 46.8011ZM29.6482 46.141C29.2293 45.008 29 43.7819 29 42.5H27C27 44.0221 27.2725 45.4828 27.7723 46.8345L29.6482 46.141ZM29 42.5C29 36.701 33.701 32 39.5 32V30C32.5964 30 27 35.5964 27 42.5H29ZM39.5 32C43.7696 32 47.4462 34.5485 49.0874 38.2115L50.9126 37.3937C48.9609 33.0377 44.5863 30 39.5 30V32ZM50.9126 38.2115C52.5538 34.5485 56.2304 32 60.5 32V30C55.4137 30 51.0391 33.0377 49.0874 37.3937L50.9126 38.2115ZM60.5 32C66.299 32 71 36.701 71 42.5H73C73 35.5964 67.4036 30 60.5 30V32ZM71 42.5C71 43.6481 70.8161 44.7513 70.4769 45.7828L72.3768 46.4076C72.7815 45.1769 73 43.863 73 42.5H71ZM72.3524 46.5276C72.3806 46.4335 72.4022 46.3372 72.4165 46.2389L70.4372 45.9515C70.4375 45.9496 70.4376 45.9501 70.4366 45.9535L72.3524 46.5276ZM71.9611 47.4935C72.1232 47.1659 72.2583 46.8416 72.3524 46.5276L70.4366 45.9535C70.3833 46.1312 70.2963 46.3484 70.1686 46.6063L71.9611 47.4935ZM70.1466 46.6539C69.5912 47.9417 68.785 49.0971 67.7888 50.058L69.1773 51.4975C70.3616 50.3551 71.3213 48.9805 71.9831 47.4459L70.1466 46.6539Z" fill="#33BFFF"/>
<path d="M32.4422 45.4433C32.1558 44.629 32 43.7531 32 42.8409C32 38.5105 35.5105 35 39.8409 35" stroke="#33BFFF" stroke-width="2" stroke-linecap="round" stroke-linejoin="round"/>
</svg>
