<svg width="100" height="100" viewBox="0 0 100 100" fill="none" xmlns="http://www.w3.org/2000/svg">
<rect opacity="0.05" width="100" height="100" rx="50" fill="#8833FF"/>
<path d="M30 49V71H70V49" stroke="#8833FF" stroke-width="2" stroke-linecap="round" stroke-linejoin="round"/>
<path d="M41 71V59C41 58.4477 41.4477 58 42 58H58C58.5523 58 59 58.4477 59 59V71" stroke="#8833FF" stroke-width="2" stroke-linecap="round" stroke-linejoin="round"/>
<path d="M74 45C74 47.2091 72.2091 49 70 49C67.7909 49 66 47.2091 66 45C66 47.2091 64.2091 49 62 49C59.7909 49 58 47.2091 58 45C58 47.2091 56.2091 49 54 49C51.7909 49 50 47.2091 50 45C50 47.2091 48.2091 49 46 49C43.7909 49 42 47.2091 42 45C42 47.2091 40.2091 49 38 49C35.8001 49 34.015 47.2241 34.0001 45.0277C33.985 47.2241 32.1999 49 30 49C27.8162 49 26.0411 47.25 26.0007 45.0758L26.0007 45.0739C26.0004 45.059 26.0005 44.6659 26.0006 44.3596C26.0006 44.1217 26.0432 43.8858 26.1262 43.6629L31.1004 30.3022C31.3919 29.5193 32.1393 29 32.9748 29H67.2818C68.1294 29 68.8849 29.5342 69.1674 30.3333L73.8856 43.6764C73.9613 43.8906 74 44.1161 74 44.3432V45Z" stroke="#8833FF" stroke-width="2" stroke-linecap="round" stroke-linejoin="round"/>
</svg>
