<svg width="100" height="100" viewBox="0 0 100 100" fill="none" xmlns="http://www.w3.org/2000/svg">
<rect opacity="0.05" width="100" height="100" rx="50" fill="#E62E2E"/>
<path d="M65.4341 32.4321C65.4341 32.4321 55.3059 36.8773 51.3109 38.8467C47.3158 40.8161 42.364 43.4604 40.5074 47.1743C38.6508 50.8882 38.5947 56.4588 39.5511 58.3156C40.5074 60.1725 42.9276 64.6176 50.186 64.899C57.4443 65.1803 60.3144 60.8477 61.327 58.822C62.3396 56.7964 62.3396 54.5018 61.327 51.8448C60.3144 49.1878 60.5386 44.0231 61.6642 40.7035C62.7898 37.3839 65.4341 32.4321 65.4341 32.4321Z" stroke="#E62E2E" stroke-width="2" stroke-linecap="round" stroke-linejoin="round"/>
<path d="M39.7894 48.8792C39.7894 48.8792 40.5639 44.0234 39.1572 40.3097C37.7505 36.5961 35.5 32.2634 35.5 32.2634C35.5 32.2634 40.3955 32.9386 43.7714 34.3453C47.1473 35.752 50.5486 39.2407 50.5486 39.2407" stroke="#E62E2E" stroke-width="2" stroke-linecap="round" stroke-linejoin="round"/>
<path d="M44.1653 34.2329C44.1653 34.2329 48.6107 32.2073 50.9174 31.1945C53.2242 30.1816 56.1501 29 56.1501 29C56.1501 29 57.9507 30.4067 58.4009 31.6165C58.851 32.8262 59.169 34.807 59.169 34.807" stroke="#E62E2E" stroke-width="2" stroke-linecap="round" stroke-linejoin="round"/>
<path d="M43.2227 33.8989C43.2227 33.8989 43.0395 32.8825 43.6024 31.0819C44.1653 29.2813 45.3469 29 45.3469 29L51.214 30.884" stroke="#E62E2E" stroke-width="2" stroke-linecap="round" stroke-linejoin="round"/>
<path d="M48.8404 65.4146L42.5486 70.6614C42.5486 70.6614 45.0889 64.6201 44.2658 63.4541" stroke="#E62E2E" stroke-width="2" stroke-linecap="round" stroke-linejoin="round"/>
<path d="M52.5486 65.4146L58.8404 70.6614C58.8404 70.6614 56.3001 64.6201 57.1232 63.4541" stroke="#E62E2E" stroke-width="2" stroke-linecap="round" stroke-linejoin="round"/>
<path d="M50.5486 64.903V71.4623" stroke="#E62E2E" stroke-width="2" stroke-linecap="round" stroke-linejoin="round"/>
</svg>
