<svg width="98" height="17" viewBox="0 0 98 17" fill="none" xmlns="http://www.w3.org/2000/svg">
<path fill-rule="evenodd" clip-rule="evenodd" d="M8.55696 13.6975L12.707 16.2075C13.467 16.6675 14.397 15.9875 14.197 15.1275L13.097 10.4075L16.767 7.2275C17.437 6.6475 17.077 5.5475 16.197 5.4775L11.367 5.0675L9.47696 0.6075C9.13696 -0.2025 7.97696 -0.2025 7.63696 0.6075L5.74696 5.0575L0.916957 5.4675C0.0369574 5.5375 -0.323043 6.6375 0.346957 7.2175L4.01696 10.3975L2.91696 15.1175C2.71696 15.9775 3.64696 16.6575 4.40696 16.1975L8.55696 13.6975Z" fill="#FF6633"/>
<path fill-rule="evenodd" clip-rule="evenodd" d="M28.557 13.6975L32.707 16.2075C33.467 16.6675 34.397 15.9875 34.197 15.1275L33.097 10.4075L36.767 7.2275C37.437 6.6475 37.077 5.5475 36.197 5.4775L31.367 5.0675L29.477 0.6075C29.137 -0.2025 27.977 -0.2025 27.637 0.6075L25.747 5.0575L20.917 5.4675C20.037 5.5375 19.677 6.6375 20.347 7.2175L24.017 10.3975L22.917 15.1175C22.717 15.9775 23.647 16.6575 24.407 16.1975L28.557 13.6975Z" fill="#FF6633"/>
<path fill-rule="evenodd" clip-rule="evenodd" d="M48.557 13.6975L52.707 16.2075C53.467 16.6675 54.397 15.9875 54.197 15.1275L53.097 10.4075L56.767 7.2275C57.437 6.6475 57.077 5.5475 56.197 5.4775L51.367 5.0675L49.477 0.6075C49.137 -0.2025 47.977 -0.2025 47.637 0.6075L45.747 5.0575L40.917 5.4675C40.037 5.5375 39.677 6.6375 40.347 7.2175L44.017 10.3975L42.917 15.1175C42.717 15.9775 43.647 16.6575 44.407 16.1975L48.557 13.6975Z" fill="#FF6633"/>
<path fill-rule="evenodd" clip-rule="evenodd" d="M68.557 13.6975L72.707 16.2075C73.467 16.6675 74.397 15.9875 74.197 15.1275L73.097 10.4075L76.767 7.2275C77.437 6.6475 77.077 5.5475 76.197 5.4775L71.367 5.0675L69.477 0.6075C69.137 -0.2025 67.977 -0.2025 67.637 0.6075L65.747 5.0575L60.917 5.4675C60.037 5.5375 59.677 6.6375 60.347 7.2175L64.017 10.3975L62.917 15.1175C62.717 15.9775 63.647 16.6575 64.407 16.1975L68.557 13.6975Z" fill="#FF6633"/>
<path fill-rule="evenodd" clip-rule="evenodd" d="M88.557 13.6975L92.707 16.2075C93.467 16.6675 94.397 15.9875 94.197 15.1275L93.097 10.4075L96.767 7.2275C97.437 6.6475 97.077 5.5475 96.197 5.4775L91.367 5.0675L89.477 0.6075C89.137 -0.2025 87.977 -0.2025 87.637 0.6075L85.747 5.0575L80.917 5.4675C80.037 5.5375 79.677 6.6375 80.347 7.2175L84.017 10.3975L82.917 15.1175C82.717 15.9775 83.647 16.6575 84.407 16.1975L88.557 13.6975Z" fill="#FF6633"/>
</svg>
